{
  "accessors": [
    {
      "name": "Aquarius_Zodiac_Sign_01_1_0_positions",
      "componentType": 5126,
      "count": 7492,
      "min": [
        -6.9982991218566895,
        0.19757699966430664,
        -0.6000000238418579
      ],
      "max": [
        7.0053629875183105,
        9.673604965209961,
        0.6000000238418579
      ],
      "type": "VEC3",
      "bufferView": 0,
      "byteOffset": 0
    },
    {
      "name": "Aquarius_Zodiac_Sign_01_1_0_normals",
      "componentType": 5126,
      "count": 7492,
      "min": [
        -0.9782271385192871,
        -0.9992120265960693,
        -1
      ],
      "max": [
        0.9985782504081726,
        0.9891168475151062,
        1
      ],
      "type": "VEC3",
      "bufferView": 1,
      "byteOffset": 0
    },
    {
      "name": "Aquarius_Zodiac_Sign_01_1_0_indices",
      "componentType": 5123,
      "count": 44928,
      "min": [
        0
      ],
      "max": [
        7491
      ],
      "type": "SCALAR",
      "bufferView": 2,
      "byteOffset": 0
    }
  ],
  "asset": {
    "generator": "obj2gltf",
    "version": "2.0"
  },
  "buffers": [
    {
      "name": "Aquarius_01",
      "byteLength": 269664,
      "uri": "data:application/octet-stream;base64,"
    }
  ],
  "bufferViews": [
    {
      "name": "bufferView_0",
      "buffer": 0,
      "byteLength": 89904,
      "byteOffset": 0,
      "byteStride": 12,
      "target": 34962
    },
    {
      "name": "bufferView_1",
      "buffer": 0,
      "byteLength": 89904,
      "byteOffset": 89904,
      "byteStride": 12,
      "target": 34962
    },
    {
      "name": "bufferView_2",
      "buffer": 0,
      "byteLength": 89856,
      "byteOffset": 179808,
      "target": 34963
    }
  ],
  "materials": [
    {
      "name": "default",
      "pbrMetallicRoughness": {
        "baseColorFactor": [
          0.5,
          0.5,
          0.5,
          1
        ],
        "metallicFactor": 0,
        "roughnessFactor": 1
      },
      "emissiveFactor": [
        0,
        0,
        0
      ],
      "alphaMode": "OPAQUE",
      "doubleSided": false
    }
  ],
  "meshes": [
    {
      "name": "Aquarius_Zodiac_Sign_01_1",
      "primitives": [
        {
          "attributes": {
            "POSITION": 0,
            "NORMAL": 1
          },
          "indices": 2,
          "material": 0,
          "mode": 4
        }
      ]
    }
  ],
  "nodes": [
    {
      "name": "Aquarius_Zodiac_Sign_01",
      "mesh": 0
    }
  ],
  "scene": 0,
  "scenes": [
    {
      "nodes": [
        0
      ]
    }
  ]
}
