{
  "accessors": [
    {
      "name": "Leo_Zodiac_Sign_01_1_0_positions",
      "componentType": 5126,
      "count": 6858,
      "min": [
        -7.116963863372803,
        0.23255300521850586,
        -0.6000009775161743
      ],
      "max": [
        4.95271110534668,
        15.516645431518555,
        0.6000019907951355
      ],
      "type": "VEC3",
      "bufferView": 0,
      "byteOffset": 0
    },
    {
      "name": "Leo_Zodiac_Sign_01_1_0_normals",
      "componentType": 5126,
      "count": 6858,
      "min": [
        -0.9999949932098389,
        -0.9999984502792358,
        -1
      ],
      "max": [
        0.9999949932098389,
        0.9999977350234985,
        1
      ],
      "type": "VEC3",
      "bufferView": 1,
      "byteOffset": 0
    },
    {
      "name": "Leo_Zodiac_Sign_01_1_0_texcoords",
      "componentType": 5126,
      "count": 6858,
      "min": [
        -2.010021924972534,
        -2.312494993209839
      ],
      "max": [
        3.010021924972534,
        0.560359001159668
      ],
      "type": "VEC2",
      "bufferView": 2,
      "byteOffset": 0
    },
    {
      "name": "Leo_Zodiac_Sign_01_1_0_indices",
      "componentType": 5123,
      "count": 33792,
      "min": [
        0
      ],
      "max": [
        6857
      ],
      "type": "SCALAR",
      "bufferView": 3,
      "byteOffset": 0
    }
  ],
  "asset": {
    "generator": "obj2gltf",
    "version": "2.0"
  },
  "buffers": [
    {
      "name": "Leo Zodiac Sign_01",
      "byteLength": 287040,
      "uri": "data:application/octet-stream;base64,"
    }
  ],
  "bufferViews": [
    {
      "name": "bufferView_0",
      "buffer": 0,
      "byteLength": 82296,
      "byteOffset": 0,
      "byteStride": 12,
      "target": 34962
    },
    {
      "name": "bufferView_1",
      "buffer": 0,
      "byteLength": 82296,
      "byteOffset": 82296,
      "byteStride": 12,
      "target": 34962
    },
    {
      "name": "bufferView_2",
      "buffer": 0,
      "byteLength": 54864,
      "byteOffset": 164592,
      "byteStride": 8,
      "target": 34962
    },
    {
      "name": "bufferView_3",
      "buffer": 0,
      "byteLength": 67584,
      "byteOffset": 219456,
      "target": 34963
    }
  ],
  "materials": [
    {
      "name": "default",
      "pbrMetallicRoughness": {
        "baseColorFactor": [
          0.5,
          0.5,
          0.5,
          1
        ],
        "metallicFactor": 0,
        "roughnessFactor": 1
      },
      "emissiveFactor": [
        0,
        0,
        0
      ],
      "alphaMode": "OPAQUE",
      "doubleSided": false
    }
  ],
  "meshes": [
    {
      "name": "Leo_Zodiac_Sign_01_1",
      "primitives": [
        {
          "attributes": {
            "POSITION": 0,
            "NORMAL": 1,
            "TEXCOORD_0": 2
          },
          "indices": 3,
          "material": 0,
          "mode": 4
        }
      ]
    }
  ],
  "nodes": [
    {
      "name": "Leo_Zodiac_Sign_01",
      "mesh": 0
    }
  ],
  "scene": 0,
  "scenes": [
    {
      "nodes": [
        0
      ]
    }
  ]
}
