{
  "accessors": [
    {
      "name": "Aries_Zodiac_Sign_01_1_0_positions",
      "componentType": 5126,
      "count": 6085,
      "min": [
        -7.669462203979492,
        0.12581999599933624,
        -0.6000000238418579
      ],
      "max": [
        7.669462203979492,
        14.470401763916016,
        0.6000009775161743
      ],
      "type": "VEC3",
      "bufferView": 0,
      "byteOffset": 0
    },
    {
      "name": "Aries_Zodiac_Sign_01_1_0_normals",
      "componentType": 5126,
      "count": 6085,
      "min": [
        -0.9998952150344849,
        -1,
        -1
      ],
      "max": [
        0.9998952150344849,
        1,
        1
      ],
      "type": "VEC3",
      "bufferView": 1,
      "byteOffset": 0
    },
    {
      "name": "Aries_Zodiac_Sign_01_1_0_texcoords",
      "componentType": 5126,
      "count": 6085,
      "min": [
        -2.1210010051727295,
        -0.27829399704933167
      ],
      "max": [
        3.1210010051727295,
        1.184460997581482
      ],
      "type": "VEC2",
      "bufferView": 2,
      "byteOffset": 0
    },
    {
      "name": "Aries_Zodiac_Sign_01_1_0_indices",
      "componentType": 5123,
      "count": 29952,
      "min": [
        0
      ],
      "max": [
        6084
      ],
      "type": "SCALAR",
      "bufferView": 3,
      "byteOffset": 0
    }
  ],
  "asset": {
    "generator": "obj2gltf",
    "version": "2.0"
  },
  "buffers": [
    {
      "name": "Aries Zodiac Sign_01",
      "byteLength": 254624,
      "uri": "data:application/octet-stream;base64,"
    }
  ],
  "bufferViews": [
    {
      "name": "bufferView_0",
      "buffer": 0,
      "byteLength": 73020,
      "byteOffset": 0,
      "byteStride": 12,
      "target": 34962
    },
    {
      "name": "bufferView_1",
      "buffer": 0,
      "byteLength": 73020,
      "byteOffset": 73020,
      "byteStride": 12,
      "target": 34962
    },
    {
      "name": "bufferView_2",
      "buffer": 0,
      "byteLength": 48680,
      "byteOffset": 146040,
      "byteStride": 8,
      "target": 34962
    },
    {
      "name": "bufferView_3",
      "buffer": 0,
      "byteLength": 59904,
      "byteOffset": 194720,
      "target": 34963
    }
  ],
  "materials": [
    {
      "name": "default",
      "pbrMetallicRoughness": {
        "baseColorFactor": [
          0.5,
          0.5,
          0.5,
          1
        ],
        "metallicFactor": 0,
        "roughnessFactor": 1
      },
      "emissiveFactor": [
        0,
        0,
        0
      ],
      "alphaMode": "OPAQUE",
      "doubleSided": false
    }
  ],
  "meshes": [
    {
      "name": "Aries_Zodiac_Sign_01_1",
      "primitives": [
        {
          "attributes": {
            "POSITION": 0,
            "NORMAL": 1,
            "TEXCOORD_0": 2
          },
          "indices": 3,
          "material": 0,
          "mode": 4
        }
      ]
    }
  ],
  "nodes": [
    {
      "name": "Aries_Zodiac_Sign_01",
      "mesh": 0
    }
  ],
  "scene": 0,
  "scenes": [
    {
      "nodes": [
        0
      ]
    }
  ]
}
