{
  "accessors": [
    {
      "name": "Capricorn_Zodiac_Sign_01_1_0_positions",
      "componentType": 5126,
      "count": 8864,
      "min": [
        -7.26478910446167,
        0.2987860143184662,
        -0.6000000238418579
      ],
      "max": [
        7.148539066314697,
        14.185028076171875,
        0.6000009775161743
      ],
      "type": "VEC3",
      "bufferView": 0,
      "byteOffset": 0
    },
    {
      "name": "Capricorn_Zodiac_Sign_01_1_0_normals",
      "componentType": 5126,
      "count": 8864,
      "min": [
        -1,
        -1,
        -1
      ],
      "max": [
        0.9992740750312805,
        0.9999815821647644,
        1
      ],
      "type": "VEC3",
      "bufferView": 1,
      "byteOffset": 0
    },
    {
      "name": "Capricorn_Zodiac_Sign_01_1_0_indices",
      "componentType": 5123,
      "count": 53184,
      "min": [
        0
      ],
      "max": [
        8863
      ],
      "type": "SCALAR",
      "bufferView": 2,
      "byteOffset": 0
    }
  ],
  "asset": {
    "generator": "obj2gltf",
    "version": "2.0"
  },
  "buffers": [
    {
      "name": "Capricorn Zodiac Sign_01",
      "byteLength": 319104,
      "uri": "data:application/octet-stream;base64,"
    }
  ],
  "bufferViews": [
    {
      "name": "bufferView_0",
      "buffer": 0,
      "byteLength": 106368,
      "byteOffset": 0,
      "byteStride": 12,
      "target": 34962
    },
    {
      "name": "bufferView_1",
      "buffer": 0,
      "byteLength": 106368,
      "byteOffset": 106368,
      "byteStride": 12,
      "target": 34962
    },
    {
      "name": "bufferView_2",
      "buffer": 0,
      "byteLength": 106368,
      "byteOffset": 212736,
      "target": 34963
    }
  ],
  "materials": [
    {
      "name": "default",
      "pbrMetallicRoughness": {
        "baseColorFactor": [
          0.5,
          0.5,
          0.5,
          1
        ],
        "metallicFactor": 0,
        "roughnessFactor": 1
      },
      "emissiveFactor": [
        0,
        0,
        0
      ],
      "alphaMode": "OPAQUE",
      "doubleSided": false
    }
  ],
  "meshes": [
    {
      "name": "Capricorn_Zodiac_Sign_01_1",
      "primitives": [
        {
          "attributes": {
            "POSITION": 0,
            "NORMAL": 1
          },
          "indices": 2,
          "material": 0,
          "mode": 4
        }
      ]
    }
  ],
  "nodes": [
    {
      "name": "Capricorn_Zodiac_Sign_01",
      "mesh": 0
    }
  ],
  "scene": 0,
  "scenes": [
    {
      "nodes": [
        0
      ]
    }
  ]
}
