{
  "accessors": [
    {
      "name": "Sagittarius_Zodiac_Sign_01_1_0_positions",
      "componentType": 5126,
      "count": 4706,
      "min": [
        -5.866507053375244,
        0.28685399889945984,
        -0.6000000238418579
      ],
      "max": [
        5.889962196350098,
        12.04332447052002,
        0.6000009775161743
      ],
      "type": "VEC3",
      "bufferView": 0,
      "byteOffset": 0
    },
    {
      "name": "Sagittarius_Zodiac_Sign_01_1_0_normals",
      "componentType": 5126,
      "count": 4706,
      "min": [
        -1,
        -1,
        -1
      ],
      "max": [
        0.9999629259109497,
        0.9999629855155945,
        1
      ],
      "type": "VEC3",
      "bufferView": 1,
      "byteOffset": 0
    },
    {
      "name": "Sagittarius_Zodiac_Sign_01_1_0_indices",
      "componentType": 5123,
      "count": 28224,
      "min": [
        0
      ],
      "max": [
        4705
      ],
      "type": "SCALAR",
      "bufferView": 2,
      "byteOffset": 0
    }
  ],
  "asset": {
    "generator": "obj2gltf",
    "version": "2.0"
  },
  "buffers": [
    {
      "name": "Sagittarius Zodiac Sign_01",
      "byteLength": 169392,
      "uri": "data:application/octet-stream;base64,"
    }
  ],
  "bufferViews": [
    {
      "name": "bufferView_0",
      "buffer": 0,
      "byteLength": 56472,
      "byteOffset": 0,
      "byteStride": 12,
      "target": 34962
    },
    {
      "name": "bufferView_1",
      "buffer": 0,
      "byteLength": 56472,
      "byteOffset": 56472,
      "byteStride": 12,
      "target": 34962
    },
    {
      "name": "bufferView_2",
      "buffer": 0,
      "byteLength": 56448,
      "byteOffset": 112944,
      "target": 34963
    }
  ],
  "materials": [
    {
      "name": "default",
      "pbrMetallicRoughness": {
        "baseColorFactor": [
          0.5,
          0.5,
          0.5,
          1
        ],
        "metallicFactor": 0,
        "roughnessFactor": 1
      },
      "emissiveFactor": [
        0,
        0,
        0
      ],
      "alphaMode": "OPAQUE",
      "doubleSided": false
    }
  ],
  "meshes": [
    {
      "name": "Sagittarius_Zodiac_Sign_01_1",
      "primitives": [
        {
          "attributes": {
            "POSITION": 0,
            "NORMAL": 1
          },
          "indices": 2,
          "material": 0,
          "mode": 4
        }
      ]
    }
  ],
  "nodes": [
    {
      "name": "Sagittarius_Zodiac_Sign_01",
      "mesh": 0
    }
  ],
  "scene": 0,
  "scenes": [
    {
      "nodes": [
        0
      ]
    }
  ]
}
